# xmcd CD database file
#
# Track frame offsets:
#	150
#	19885
#	40792
#
# Disc length: 805 seconds
#
# Revision: 0
# Processed by: cddbd v1.5PL3 Copyright (c) Steve Scherf et al.
# Submitted via: CDex 1.50
#
DISCID=1b032303
DTITLE=Qlair - さよならのチャイム
DYEAR=1992
DGENRE=JPop
TTITLE0=さよならのチャイム
TTITLE1=ハッピーバースディ カウントダウン
TTITLE2=さよならのチャイム (ｶﾗｵｹ)
EXTD=YEAR: 1992/01/22
EXTT0=
EXTT1=
EXTT2=
PLAYORDER=
